<?xml version="1.0" encoding="utf-8"?>
<!-- Generator: Adobe Illustrator 21.1.0, SVG Export Plug-In . SVG Version: 6.00 Build 0)  -->
<svg version="1.1" id="Layer_1" xmlns="http://www.w3.org/2000/svg" xmlns:xlink="http://www.w3.org/1999/xlink" x="0px" y="0px"
	 viewBox="0 0 24 23.7" style="enable-background:new 0 0 24 23.7;" xml:space="preserve">
<style type="text/css">
	.st0{fill:#FFFFFF;}
</style>
<g>
	<path class="st0" d="M6,11.4l-0.2,0.2c-0.3,0.2-0.3,0.6,0,0.9c0.1,0.1,0.3,0.2,0.5,0.2c0.2,0,0.3-0.1,0.4-0.2l0.2-0.2
		c0.3-0.2,0.3-0.6,0-0.9C6.7,11.2,6.3,11.2,6,11.4z"/>
	<path class="st0" d="M24,9.7c0-0.2-0.1-0.3-0.3-0.3c-1.2,0-1.7,0.6-1.8,1c-0.5,0.1-0.9,0.4-1.3,0.7c-1.6-2.7-5-4.6-9.1-4.6
		c-0.7,0-1.4,0.1-2.1,0.2C8.3,5.3,6.1,4.4,3.5,4.4C3.2,4.4,3,4.6,2.9,4.8c-0.1,0.3,0,0.5,0.2,0.7c0.5,0.4,1.3,2.1,1.5,3
		c-1,0.7-1.8,1.6-2.3,2.5H0.6c-0.4,0-0.6,0.3-0.6,0.6v4.7c0,0.4,0.3,0.6,0.6,0.6h1.6c0.5,0.9,1.1,1.6,2,2.3L5,23.2
		c0.1,0.3,0.3,0.5,0.6,0.5h3.8c0.3,0,0.6-0.3,0.6-0.6v-1.3c0.9,0.1,1.7,0.1,2.6,0V23c0,0.4,0.3,0.6,0.6,0.6h3.8
		c0.3,0,0.6-0.2,0.6-0.5l0.8-3.8c1.8-1.4,2.8-3.3,2.8-5.3c0-0.9-0.2-1.7-0.6-2.5c0.2-0.3,0.5-0.5,0.8-0.6c0,0.3,0.1,0.7,0.4,0.9
		c0.3,0.3,0.6,0.4,0.9,0.4c0.2,0,0.4-0.1,0.6-0.2c0.2-0.1,0.3-0.4,0.3-0.6c0-0.2,0-0.5-0.3-0.8c-0.2-0.2-0.5-0.3-0.8-0.4
		c0.2-0.2,0.6-0.3,1-0.3C23.8,10,24,9.8,24,9.7z M17.7,18.6c-0.1,0.1-0.2,0.2-0.2,0.4l-0.7,3.5H14V21c0-0.2-0.1-0.4-0.2-0.5
		c-0.1-0.1-0.3-0.2-0.5-0.1c-1.4,0.2-2.3,0.2-3.7,0c-0.2,0-0.4,0-0.5,0.1c-0.1,0.1-0.2,0.3-0.2,0.5v1.4H6.2l-0.7-3.5
		c0-0.2-0.1-0.3-0.2-0.4c-0.9-0.7-1.5-1.5-2-2.3c-0.1-0.2-0.3-0.4-0.6-0.4H1.3v-3.5h1.4c0.2,0,0.5-0.1,0.6-0.4
		c0.5-1,1.3-1.8,2.2-2.5c0.1,0,0.2-0.1,0.3-0.2c0,0,0,0,0.1,0l0,0C5.9,9.2,5.9,9,5.9,8.9c0-0.8-0.5-2.1-1.1-3.1
		c2.2,0.3,3.9,1.4,3.9,2.7c0,0.4,0.3,0.6,0.6,0.6c0.4,0,0.6-0.3,0.6-0.6c0-0.2,0-0.4-0.1-0.6c0.5-0.1,1-0.1,1.5-0.1
		c4.8,0,8.7,2.9,8.7,6.4C20.1,15.8,19.3,17.4,17.7,18.6z M23,11.1c0.1,0.1,0.2,0.2,0.2,0.4c0,0.1-0.1,0.2-0.1,0.2
		c-0.1,0-0.4,0.1-0.6-0.2c-0.1-0.1-0.2-0.4-0.2-0.6C22.6,10.9,22.9,11,23,11.1z"/>
	<path class="st0" d="M12.9,5.8c1.6,0,2.9-1.3,2.9-2.9c0-1.6-1.3-2.9-2.9-2.9C11.3,0,10,1.3,10,2.9C10,4.5,11.3,5.8,12.9,5.8z
		 M12.9,0.6c1.3,0,2.3,1,2.3,2.3c0,1.3-1,2.3-2.3,2.3c-1.3,0-2.3-1-2.3-2.3C10.7,1.7,11.7,0.6,12.9,0.6z"/>
	<path class="st0" d="M12.9,4.4c0.2,0,0.3-0.1,0.3-0.3V1.8c0-0.2-0.1-0.3-0.3-0.3c-0.2,0-0.3,0.1-0.3,0.3V4
		C12.6,4.2,12.8,4.4,12.9,4.4z"/>
</g>
</svg>
