<?xml version="1.0" encoding="utf-8"?>
<!-- Generator: Adobe Illustrator 21.1.0, SVG Export Plug-In . SVG Version: 6.00 Build 0)  -->
<svg version="1.1" id="Layer_1" xmlns="http://www.w3.org/2000/svg" xmlns:xlink="http://www.w3.org/1999/xlink" x="0px" y="0px"
	 viewBox="0 0 22.7 21.9" style="enable-background:new 0 0 22.7 21.9;" xml:space="preserve">
<style type="text/css">
	.st0{fill:#FFFFFF;}
</style>
<g>
	<g>
		<path class="st0" d="M9,17.8h4.7c0.2,0,0.3-0.1,0.3-0.3v-3.9c0-0.2-0.1-0.3-0.3-0.3H9c-0.2,0-0.3,0.1-0.3,0.3v3.9
			C8.7,17.6,8.8,17.8,9,17.8z M9.3,13.9h4.1v3.3H9.3V13.9z"/>
		<path class="st0" d="M22.5,9.4L11.7,0.1C11.5,0,11.2,0,11,0.1L0.2,9.4C0,9.5,0,9.8,0,10c0.1,0.2,0.3,0.4,0.5,0.4h3.2v10.9
			c0,0.3,0.3,0.6,0.6,0.6h13.9c0.3,0,0.6-0.3,0.6-0.6V10.4h3.2c0.2,0,0.5-0.1,0.5-0.4C22.7,9.8,22.7,9.5,22.5,9.4z M17.7,20.7H5
			V10.4h12.8V20.7z M18.3,9.2H4.4H2.1l9.2-7.9l9.2,7.9H18.3z"/>
	</g>
	<g>
		<path class="st0" d="M9,17.8h4.7c0.2,0,0.3-0.1,0.3-0.3v-3.9c0-0.2-0.1-0.3-0.3-0.3H9c-0.2,0-0.3,0.1-0.3,0.3v3.9
			C8.7,17.6,8.8,17.8,9,17.8z M9.3,13.9h4.1v3.3H9.3V13.9z"/>
		<path class="st0" d="M22.5,9.4L11.7,0.1C11.5,0,11.2,0,11,0.1L0.2,9.4C0,9.5,0,9.8,0,10c0.1,0.2,0.3,0.4,0.5,0.4h3.2v10.9
			c0,0.3,0.3,0.6,0.6,0.6h13.9c0.3,0,0.6-0.3,0.6-0.6V10.4h3.2c0.2,0,0.5-0.1,0.5-0.4C22.7,9.8,22.7,9.5,22.5,9.4z M17.7,20.7H5
			V10.4h12.8V20.7z M18.3,9.2H4.4H2.1l9.2-7.9l9.2,7.9H18.3z"/>
	</g>
</g>
</svg>
