<?xml version="1.0" encoding="utf-8"?>
<!-- Generator: Adobe Illustrator 21.1.0, SVG Export Plug-In . SVG Version: 6.00 Build 0)  -->
<svg version="1.1" id="Layer_1" xmlns="http://www.w3.org/2000/svg" xmlns:xlink="http://www.w3.org/1999/xlink" x="0px" y="0px"
	 viewBox="0 0 23.5 22.9" style="enable-background:new 0 0 23.5 22.9;" xml:space="preserve">
<style type="text/css">
	.st0{fill:#FFFFFF;}
</style>
<g>
	<path class="st0" d="M21.4,4.2c-0.2-0.3-0.6-0.3-0.8-0.1l-9.1,6.4l-7.2-8C4.2,2.2,4,2.2,3.9,2.3C1.4,4.5,0,7.7,0,11
		c0,1.9,0.4,3.7,1.3,5.3c0.1,0.1,0.2,0.2,0.3,0.2c0,0,0.1,0,0.1,0l8.6-4.5l-5,8.4c-0.2,0.3-0.1,0.6,0.2,0.8c1.8,1.1,3.9,1.7,6.1,1.7
		c6.6,0,11.9-5.3,11.9-11.9C23.5,8.5,22.8,6.2,21.4,4.2z M1.7,15.8 M11.6,21.7c-1.7,0-3.4-0.4-4.9-1.2l5.4-9.1l8.7-6.1
		C21.8,7,22.3,9,22.3,11C22.3,16.9,17.5,21.7,11.6,21.7z"/>
	<path class="st0" d="M13,4v0.8c0,0.7,0.5,1.1,1.1,1.1c0.6,0,1.1-0.4,1.1-1.1V4c0-0.7-0.5-1.1-1.1-1.1C13.5,2.9,13,3.3,13,4z
		 M13.6,4c0-0.4,0.2-0.6,0.5-0.6c0.4,0,0.5,0.2,0.5,0.6v0.8c0,0.4-0.2,0.6-0.5,0.6c-0.3,0-0.5-0.2-0.5-0.6V4z"/>
	<polygon class="st0" points="11.2,5.9 14,0.1 13.3,0.1 10.6,5.9 	"/>
	<path class="st0" d="M10.5,3.1c0.6,0,1.1-0.4,1.1-1.1V1.1c0-0.7-0.5-1.1-1.1-1.1C9.8,0,9.3,0.4,9.3,1.1v0.8
		C9.3,2.6,9.8,3.1,10.5,3.1z M9.9,1.1c0-0.4,0.2-0.6,0.5-0.6c0.3,0,0.5,0.2,0.5,0.6v0.8c0,0.4-0.2,0.6-0.5,0.6
		c-0.4,0-0.5-0.2-0.5-0.6V1.1z"/>
</g>
</svg>
