<?xml version="1.0" encoding="utf-8"?>
<!-- Generator: Adobe Illustrator 21.1.0, SVG Export Plug-In . SVG Version: 6.00 Build 0)  -->
<svg version="1.1" id="Layer_1" xmlns="http://www.w3.org/2000/svg" xmlns:xlink="http://www.w3.org/1999/xlink" x="0px" y="0px"
	 viewBox="0 0 21.8 21.8" style="enable-background:new 0 0 21.8 21.8;" xml:space="preserve">
<style type="text/css">
	.st0{fill:#FFFFFF;}
</style>
<g>
	<path class="st0" d="M5.9,6.4c1.1,0,2-0.9,2-2c0-1.1-0.9-2-2-2c-1.1,0-2,0.9-2,2C3.9,5.6,4.8,6.4,5.9,6.4z M5.9,3.1
		c0.7,0,1.3,0.6,1.3,1.3c0,0.7-0.6,1.3-1.3,1.3c-0.7,0-1.3-0.6-1.3-1.3C4.5,3.7,5.1,3.1,5.9,3.1z"/>
	<path class="st0" d="M3,10.9h5.8c0.2,0,0.3-0.1,0.3-0.3V8.8c0,0,0,0,0,0c-0.1-1.1-1-2-2.1-2H4.7c-1.1,0-2,0.9-2.1,2
		c0,0,0,0.1,0,0.1v1.7C2.7,10.8,2.8,10.9,3,10.9z M3.3,8.8C3.3,8,4,7.4,4.7,7.4H7c0.8,0,1.4,0.6,1.4,1.4c0,0,0,0,0,0.1l0,1.4H3.3
		V8.8L3,8.9L3.3,8.8z"/>
	<path class="st0" d="M11.4,4.4h5.8c0.2,0,0.3-0.1,0.3-0.3c0-0.2-0.1-0.3-0.3-0.3h-5.8c-0.2,0-0.3,0.1-0.3,0.3
		C11.1,4.3,11.2,4.4,11.4,4.4z"/>
	<path class="st0" d="M10.3,6.6h7.9c0.2,0,0.3-0.1,0.3-0.3c0-0.2-0.1-0.3-0.3-0.3h-7.9c-0.2,0-0.3,0.1-0.3,0.3
		C10,6.4,10.2,6.6,10.3,6.6z"/>
	<path class="st0" d="M3,13.3h7.9c0.2,0,0.3-0.1,0.3-0.3c0-0.2-0.1-0.3-0.3-0.3H3c-0.2,0-0.3,0.1-0.3,0.3C2.7,13.2,2.8,13.3,3,13.3z
		"/>
	<path class="st0" d="M21.1,0H0.6C0.3,0,0,0.3,0,0.6v15.7C0,16.7,0.3,17,0.6,17h10.8c-0.5,1-0.9,2.1-1.3,3.2c0,0.1,0,0.3,0.1,0.3
		c0.1,0.1,0.2,0.1,0.4,0c0.7-0.4,1.5-0.8,2.2-1.1c0.3,0.8,0.6,1.5,1,2.3c0.1,0.1,0.2,0.2,0.3,0.2c0,0,0,0,0,0c0.1,0,0.2-0.1,0.3-0.2
		c0.4-1.1,0.8-2.1,1.3-3.1c0.5,1,0.9,2,1.3,3.1c0,0.1,0.2,0.2,0.3,0.2c0,0,0,0,0,0c0.1,0,0.2-0.1,0.3-0.2c0.3-0.7,0.7-1.5,1-2.3
		c0.7,0.3,1.5,0.7,2.2,1.1c0.1,0.1,0.3,0.1,0.4,0c0.1-0.1,0.1-0.2,0.1-0.3C20.8,19,20.4,18,19.9,17h1.3c0.4,0,0.6-0.3,0.6-0.6V0.6
		C21.8,0.3,21.5,0,21.1,0z M14,20.7c-0.3-0.6-0.5-1.2-0.7-1.8c0-0.1-0.1-0.1-0.2-0.2c0,0-0.1,0-0.1,0c0,0-0.1,0-0.1,0
		c-0.6,0.3-1.2,0.6-1.8,0.9c0.6-1.6,1.3-3.1,2.2-4.6c0.3,0.3,0.6,0.6,0.9,0.7c0.4,0.7,0.8,1.4,1.2,2.1C14.8,18.7,14.4,19.7,14,20.7z
		 M13.6,12.8c0-1.1,0.9-2,2-2c1.1,0,2,0.9,2,2c0,1.1-0.9,2-2,2C14.5,14.8,13.6,13.9,13.6,12.8z M18.5,18.7c-0.1,0-0.2,0-0.3,0
		c-0.1,0-0.1,0.1-0.2,0.2c-0.2,0.6-0.5,1.2-0.7,1.8c-0.6-1.6-1.4-3.2-2.2-4.6c0.2,0,0.4,0.1,0.6,0.1c1,0,1.9-0.5,2.5-1.1
		c0.8,1.5,1.6,3,2.2,4.6C19.7,19.2,19.1,18.9,18.5,18.7z M20.5,15.7h-1.3c-0.2-0.4-0.5-0.9-0.7-1.3c0.3-0.5,0.4-1,0.4-1.6
		c0-1.8-1.5-3.3-3.3-3.3c-1.8,0-3.3,1.5-3.3,3.3c0,0.6,0.2,1.1,0.4,1.6c-0.2,0.4-0.5,0.9-0.7,1.3H1.3V1.3h19.2V15.7z"/>
</g>
</svg>
