<?xml version="1.0" encoding="utf-8"?>
<!-- Generator: Adobe Illustrator 21.1.0, SVG Export Plug-In . SVG Version: 6.00 Build 0)  -->
<svg version="1.1" id="Layer_1" xmlns="http://www.w3.org/2000/svg" xmlns:xlink="http://www.w3.org/1999/xlink" x="0px" y="0px"
	 viewBox="0 0 21.6 22.1" style="enable-background:new 0 0 21.6 22.1;" xml:space="preserve">
<style type="text/css">
	.st0{fill:#5D3A04;}
</style>
<g>
	<path class="st0" d="M3,19.7c-0.2,0-0.3-0.1-0.3-0.3v-0.8c0-0.2-0.1-0.3-0.3-0.3c-0.2,0-0.3,0.1-0.3,0.3v0.8c0,0.5,0.4,0.9,0.9,0.9
		h0c0.2,0,0.3-0.1,0.3-0.3C3.3,19.8,3.2,19.7,3,19.7z"/>
	<path class="st0" d="M2.4,17.1c0.2,0,0.3-0.1,0.3-0.3v-1.8c0-0.2-0.1-0.3-0.3-0.3c-0.2,0-0.3,0.1-0.3,0.3v1.8
		C2.1,17,2.3,17.1,2.4,17.1z"/>
	<path class="st0" d="M2.4,13.6c0.2,0,0.3-0.1,0.3-0.3v-1.8c0-0.2-0.1-0.3-0.3-0.3c-0.2,0-0.3,0.1-0.3,0.3v1.8
		C2.1,13.5,2.3,13.6,2.4,13.6z"/>
	<path class="st0" d="M15.4,8.8h1.8c0.2,0,0.3-0.1,0.3-0.3c0-0.2-0.1-0.3-0.3-0.3h-1.8c-0.2,0-0.3,0.1-0.3,0.3
		C15.1,8.7,15.3,8.8,15.4,8.8z"/>
	<path class="st0" d="M11.9,8.8h1.8c0.2,0,0.3-0.1,0.3-0.3c0-0.2-0.1-0.3-0.3-0.3h-1.8c-0.2,0-0.3,0.1-0.3,0.3
		C11.6,8.7,11.8,8.8,11.9,8.8z"/>
	<path class="st0" d="M10.2,8.2H8.4c-0.2,0-0.3,0.1-0.3,0.3c0,0.2,0.1,0.3,0.3,0.3h1.8c0.2,0,0.3-0.1,0.3-0.3
		C10.5,8.3,10.3,8.2,10.2,8.2z"/>
	<path class="st0" d="M15.3,20.3h1.8c0.2,0,0.3-0.1,0.3-0.3c0-0.2-0.1-0.3-0.3-0.3h-1.8c-0.2,0-0.3,0.1-0.3,0.3
		C15,20.1,15.2,20.3,15.3,20.3z"/>
	<path class="st0" d="M11.5,20c0,0.2,0.1,0.3,0.3,0.3h1.8c0.2,0,0.3-0.1,0.3-0.3c0-0.2-0.1-0.3-0.3-0.3h-1.8
		C11.6,19.7,11.5,19.8,11.5,20z"/>
	<path class="st0" d="M3.2,8.2H3c-0.5,0-0.9,0.4-0.9,0.9v0.7c0,0.2,0.1,0.3,0.3,0.3c0.2,0,0.3-0.1,0.3-0.3V9.1
		c0-0.2,0.1-0.3,0.3-0.3h0.1c0.2,0,0.3-0.1,0.3-0.3C3.5,8.3,3.3,8.2,3.2,8.2z"/>
	<path class="st0" d="M10.1,19.7H8.3C8.1,19.7,8,19.8,8,20c0,0.2,0.1,0.3,0.3,0.3h1.8c0.2,0,0.3-0.1,0.3-0.3
		C10.4,19.8,10.2,19.7,10.1,19.7z"/>
	<path class="st0" d="M6.6,19.7H4.8c-0.2,0-0.3,0.1-0.3,0.3c0,0.2,0.1,0.3,0.3,0.3h1.8c0.2,0,0.3-0.1,0.3-0.3
		C6.9,19.8,6.7,19.7,6.6,19.7z"/>
	<path class="st0" d="M6.7,8.2H4.9c-0.2,0-0.3,0.1-0.3,0.3c0,0.2,0.1,0.3,0.3,0.3h1.8C6.8,8.8,7,8.7,7,8.5C7,8.3,6.8,8.2,6.7,8.2z"
		/>
	<path class="st0" d="M21,11.4h-0.9V9.3c0-1.6-1.3-2.9-2.9-2.9h-1.9c0.5-0.5,1.1-0.9,1.8-1.1c0.1,0,0.2-0.1,0.2-0.2
		c0-0.1,0-0.2-0.1-0.3l-4.6-4.6C12.5,0,12.4,0,12.3,0C10.1,0.7,9.1,2.6,8,4.5C7.7,5.1,7.3,5.7,6.9,6.3h-4C1.3,6.3,0,7.6,0,9.3v9.9
		c0,1.6,1.3,2.9,2.9,2.9h14.2c1.6,0,2.9-1.3,2.9-2.9V17H21c0.3,0,0.6-0.3,0.6-0.6V12C21.6,11.7,21.3,11.4,21,11.4z M16.5,4.8
		c-0.8,0.4-1.5,0.9-2,1.5h-1.6c0.7-1,1.5-1.9,2.7-2.4L16.5,4.8z M15.2,3.5c-1.1,0.5-1.9,1.2-2.5,2.1c-0.1-0.4-0.3-0.7-0.6-1
		c-0.3-0.3-0.6-0.5-1-0.6c0.7-0.9,1.4-1.7,2.6-2.1L15.2,3.5z M12.2,6.3H9.1C9.1,6,9.2,5.8,9.3,5.5c0.3-0.6,0.8-0.9,1.3-0.9
		c0.4,0,0.7,0.2,1,0.4C12,5.4,12.2,5.8,12.2,6.3z M8.6,4.7c1-1.8,1.9-3.4,3.8-4.1l0.9,0.9C11.9,2,11.1,3,10.4,4.1
		C9.7,4.2,9.2,4.6,8.8,5.2C8.6,5.6,8.5,6,8.4,6.3H7.6C8,5.8,8.3,5.3,8.6,4.7z M18.9,19.2c0,1-0.8,1.8-1.8,1.8H2.9
		c-1,0-1.8-0.8-1.8-1.8V9.3c0-1,0.8-1.8,1.8-1.8h14.2c1,0,1.8,0.8,1.8,1.8v2.2h-5.9c-0.3,0-0.6,0.3-0.6,0.6v4.4
		c0,0.3,0.3,0.6,0.6,0.6h5.9V19.2z M20.4,15.9h-6.8v-3.3h6.8V15.9z"/>
	<path class="st0" d="M15.4,15.4c0.7,0,1.2-0.5,1.2-1.2c0-0.7-0.5-1.2-1.2-1.2c-0.7,0-1.2,0.5-1.2,1.2
		C14.2,14.9,14.7,15.4,15.4,15.4z M15.4,13.6c0.3,0,0.6,0.3,0.6,0.6c0,0.3-0.3,0.6-0.6,0.6c-0.3,0-0.6-0.3-0.6-0.6
		C14.8,13.9,15.1,13.6,15.4,13.6z"/>
</g>
</svg>
