<?xml version="1.0" encoding="utf-8"?>
<!-- Generator: Adobe Illustrator 21.1.0, SVG Export Plug-In . SVG Version: 6.00 Build 0)  -->
<svg version="1.1" id="Layer_1" xmlns="http://www.w3.org/2000/svg" xmlns:xlink="http://www.w3.org/1999/xlink" x="0px" y="0px"
	 viewBox="0 0 21.1 14.3" style="enable-background:new 0 0 21.1 14.3;" xml:space="preserve">
<style type="text/css">
	.st0{fill:#FFFFFF;}
</style>
<path class="st0" d="M20.8,6.6L15,0.2C14.9,0.1,14.7,0,14.6,0c-0.2,0-0.3,0.1-0.5,0.2L9.3,5.5V1c0-0.4-0.3-0.6-0.6-0.6H4.4
	C4,0.4,3.7,0.7,3.7,1v5.5H0.6c-0.3,0-0.5,0.2-0.6,0.4C0,7.1,0,7.4,0.2,7.6L6,14.1c0.1,0.1,0.3,0.2,0.5,0.2c0.2,0,0.4-0.1,0.5-0.2
	l4.8-5.3v4.4c0,0.4,0.3,0.6,0.6,0.6h4.3c0.4,0,0.6-0.3,0.6-0.6V7.8h3.1c0,0,0,0,0,0c0.4,0,0.6-0.3,0.6-0.6C21.1,6.9,21,6.7,20.8,6.6
	z M6.5,12.7L2.1,7.8h2.3C4.7,7.8,5,7.5,5,7.1V1.7h3v5.5c0,0,0,0,0,0c0,0.1,0,0.1,0,0.2c0,0,0,0,0,0c0,0,0,0,0,0
	c0,0.1,0.1,0.1,0.1,0.2c0,0,0,0,0,0c0,0,0.1,0.1,0.1,0.1c0,0,0,0,0.1,0c0.1,0,0.1,0,0.2,0H11L6.5,12.7z M16.7,6.5
	c-0.4,0-0.6,0.3-0.6,0.6v5.5h-3V7.1c0,0,0,0,0,0C13,7,13,7,13,6.9c0,0,0,0,0,0c0,0,0,0,0,0c0-0.1-0.1-0.1-0.1-0.2c0,0,0,0,0,0
	c0,0-0.1-0.1-0.1-0.1c0,0,0,0-0.1,0c-0.1,0-0.1,0-0.2,0h-2.3l4.4-4.9L19,6.5H16.7z"/>
</svg>
