<?xml version="1.0" encoding="utf-8"?>
<!-- Generator: Adobe Illustrator 21.1.0, SVG Export Plug-In . SVG Version: 6.00 Build 0)  -->
<svg version="1.1" id="Layer_1" xmlns="http://www.w3.org/2000/svg" xmlns:xlink="http://www.w3.org/1999/xlink" x="0px" y="0px"
	 viewBox="0 0 21.5 20.3" style="enable-background:new 0 0 21.5 20.3;" xml:space="preserve">
<style type="text/css">
	.st0{fill:#FFFFFF;}
</style>
<g>
	<path class="st0" d="M15.9,6.6c1.8,0,3.3-1.5,3.3-3.3c0-1.8-1.5-3.3-3.3-3.3c-1.8,0-3.3,1.5-3.3,3.3C12.6,5.1,14.1,6.6,15.9,6.6z
		 M15.9,0.6c1.5,0,2.7,1.2,2.7,2.7c0,1.5-1.2,2.7-2.7,2.7c-1.5,0-2.7-1.2-2.7-2.7C13.2,1.8,14.5,0.6,15.9,0.6z"/>
	<path class="st0" d="M5.5,6.6c1.8,0,3.3-1.5,3.3-3.3C8.8,1.5,7.3,0,5.5,0C3.7,0,2.2,1.5,2.2,3.3C2.2,5.1,3.7,6.6,5.5,6.6z M5.5,0.6
		c1.5,0,2.7,1.2,2.7,2.7C8.2,4.8,7,6,5.5,6C4,6,2.8,4.8,2.8,3.3C2.8,1.8,4,0.6,5.5,0.6z"/>
	<path class="st0" d="M21.4,10.3C21.4,8.5,19.8,7,18,7h-4.1c-0.6-1.1-1.8-1.9-3.2-1.9C9.4,5.1,8.2,5.9,7.5,7H3.5
		C1.6,7,0.1,8.5,0,10.3c0,0,0,0,0,0.1v3.3C0,13.8,0.1,14,0.3,14h5.6c-0.6,0.6-0.9,1.4-1,2.3c0,0,0,0.1,0,0.1v3.3
		c0,0.3,0.3,0.6,0.6,0.6h10.4c0.3,0,0.6-0.3,0.6-0.6v-3.3c0,0,0-0.1,0-0.1c0-0.9-0.4-1.7-1-2.3h5.6c0.2,0,0.3-0.1,0.3-0.3L21.4,10.3
		C21.5,10.4,21.4,10.3,21.4,10.3z M10.7,6.3c1.3,0,2.4,1.1,2.4,2.4c0,1.3-1.1,2.4-2.4,2.4S8.3,10,8.3,8.7C8.3,7.4,9.4,6.3,10.7,6.3z
		 M0.6,10.4C0.6,10.4,0.6,10.4,0.6,10.4c0-1.6,1.3-2.8,2.8-2.8h3.8C7.2,8,7.1,8.3,7.1,8.7c0,1.9,1.5,3.4,3.3,3.6v0.4H8.7
		c-0.8,0-1.5,0.2-2,0.6h-6V10.4z M15.3,16.4C15.3,16.4,15.3,16.5,15.3,16.4l0,2.7H6.1v-2.6c0,0,0,0,0,0c0-1.3,1.1-2.4,2.5-2.4h2.1
		l0,0h2.1C14.2,14,15.3,15.1,15.3,16.4z M20.8,13.4h-6c-0.6-0.4-1.3-0.6-2.1-0.6H11v-0.4c1.8-0.2,3.3-1.7,3.3-3.6
		c0-0.4-0.1-0.7-0.2-1.1H18c1.5,0,2.8,1.2,2.8,2.8c0,0,0,0,0,0V13.4z"/>
</g>
</svg>
