<?xml version="1.0" encoding="utf-8"?>
<!-- Generator: Adobe Illustrator 21.1.0, SVG Export Plug-In . SVG Version: 6.00 Build 0)  -->
<svg version="1.1" id="Layer_1" xmlns="http://www.w3.org/2000/svg" xmlns:xlink="http://www.w3.org/1999/xlink" x="0px" y="0px"
	 viewBox="0 0 22.2 19.7" style="enable-background:new 0 0 22.2 19.7;" xml:space="preserve">
<style type="text/css">
	.st0{fill:#FFFFFF;}
</style>
<path class="st0" d="M19.2,3.2h-4.2V0.6c0-0.3-0.3-0.6-0.6-0.6H7.7C7.4,0,7.1,0.3,7.1,0.6v2.6H2.9C1.3,3.2,0,4.5,0,6.2v10.6
	c0,1.6,1.3,2.9,2.9,2.9h16.3c1.6,0,2.9-1.3,2.9-2.9V6.2C22.2,4.5,20.9,3.2,19.2,3.2z M12.1,10.2h-2c-0.2,0-0.3,0.1-0.3,0.3v0.7H2.9
	c-1.1,0-2.1-0.9-2.1-2.1V6.2c0-1.1,0.9-2.1,2.1-2.1h16.3c1.1,0,2.1,0.9,2.1,2.1v2.9c0,1.1-0.9,2.1-2.1,2.1h-6.9v-0.7
	C12.4,10.3,12.3,10.2,12.1,10.2z M11.8,10.8v1.4h-1.4v-1.4H11.8z M8.3,1.2h5.6v2H8.3V1.2z M19.2,18.5H2.9c-1,0-1.8-0.8-1.8-1.8v-5.7
	c0.5,0.4,1.1,0.7,1.8,0.7h6.9v0.7c0,0.2,0.1,0.3,0.3,0.3h2c0.2,0,0.3-0.1,0.3-0.3v-0.7h6.9c0.7,0,1.3-0.3,1.8-0.7v5.7
	C21,17.7,20.2,18.5,19.2,18.5z"/>
</svg>
