<?xml version="1.0" encoding="utf-8"?>
<!-- Generator: Adobe Illustrator 21.1.0, SVG Export Plug-In . SVG Version: 6.00 Build 0)  -->
<svg version="1.1" id="Layer_1" xmlns="http://www.w3.org/2000/svg" xmlns:xlink="http://www.w3.org/1999/xlink" x="0px" y="0px"
	 viewBox="0 0 38.2 39.4" style="enable-background:new 0 0 38.2 39.4;" xml:space="preserve">
<style type="text/css">
	.st0{fill:#474744;}
</style>
<g>
	<g>
		<path class="st0" d="M21.1,6.6v0.9h0.6V6.6c0.6,0,1-0.2,1.5-0.5l-0.5-0.3c-0.3,0.3-0.6,0.4-1.1,0.4V3.4c0.4,0,0.7,0.1,1.1,0.4
			l0.5-0.3c-0.5-0.4-0.9-0.5-1.5-0.5V2.2h-0.6v0.7C20,3,19.2,3.7,19.2,4.7C19.2,5.8,20,6.4,21.1,6.6z M20.3,3.8
			c0.2-0.2,0.5-0.3,0.8-0.4v2.7c-0.3,0-0.6-0.2-0.8-0.4c-0.2-0.2-0.3-0.5-0.3-1C20,4.3,20.1,4,20.3,3.8z"/>
	</g>
	<g>
		<path class="st0" d="M8.9,14.6v0.8h0.6v-0.8c0.6,0,1-0.2,1.5-0.5l-0.5-0.3c-0.3,0.3-0.6,0.4-1,0.4v-2.6c0.4,0,0.7,0.1,1,0.4
			l0.5-0.3c-0.5-0.4-0.9-0.5-1.5-0.5v-0.7H8.9v0.7c-1.1,0.1-1.8,0.7-1.8,1.8S7.8,14.5,8.9,14.6z M8.2,12c0.2-0.2,0.5-0.3,0.8-0.4
			v2.6c-0.3,0-0.6-0.2-0.8-0.4c-0.2-0.2-0.3-0.5-0.3-0.9C7.8,12.5,7.9,12.2,8.2,12z"/>
	</g>
	<g>
		<path class="st0" d="M30.2,13.5V4.8c0-2.8-3.9-4.8-9-4.8c-5.1,0-9,2.1-9,4.8v3.6c-1-0.2-2.1-0.3-3.2-0.3c-5.1,0-9,2.1-9,4.8v20.2
			c0,2.8,3.9,4.8,9,4.8c4.8,0,8.5-1.8,8.9-4.3c0.7,0.1,1.5,0.2,2.3,0.3v0.6c0,2.8,3.9,4.8,9,4.8c5.1,0,9-2.1,9-4.8V18.3
			C38.2,15.7,34.8,13.7,30.2,13.5z M2.4,16.3c0.1,0,0.1,0.1,0.2,0.1c0.2,0.1,0.4,0.2,0.7,0.3c0,0,0.1,0,0.1,0
			C3.5,16.9,3.7,17,4,17.1c0.1,0,0.2,0.1,0.3,0.1c0.2,0.1,0.4,0.1,0.5,0.2c0.1,0,0.2,0.1,0.3,0.1c0.2,0,0.4,0.1,0.5,0.1
			c0.1,0,0.2,0,0.4,0.1c0.2,0,0.4,0.1,0.6,0.1c0.1,0,0.2,0,0.4,0c0.2,0,0.4,0,0.7,0.1c0.1,0,0.2,0,0.3,0c0.3,0,0.7,0,1,0
			c0.3,0,0.7,0,1,0c0.1,0,0.2,0,0.3,0c0.2,0,0.4,0,0.7-0.1c0.1,0,0.2,0,0.4,0c0.2,0,0.4-0.1,0.6-0.1c0.1,0,0.2,0,0.4-0.1
			c0.2,0,0.4-0.1,0.6-0.1c0.1,0,0.2-0.1,0.3-0.1c0.2-0.1,0.4-0.1,0.5-0.2c0.1,0,0.2-0.1,0.3-0.1c0.2-0.1,0.4-0.2,0.7-0.3
			c0,0,0.1,0,0.1,0c0.2-0.1,0.5-0.2,0.7-0.3c0.1,0,0.1-0.1,0.2-0.1c0.1-0.1,0.3-0.2,0.4-0.3c0,0,0,0,0.1,0v2.7C15.1,20,12.2,21,9,21
			c-3.2,0-6.1-1-7.1-2.3V16c0,0,0,0,0.1,0C2.1,16.1,2.2,16.2,2.4,16.3z M28.3,13.5c-3.7,0.2-6.6,1.5-7.6,3.3c-1,0-1.9-0.1-2.7-0.3
			v-3c1,0.2,2.1,0.3,3.2,0.3c3,0,5.6-0.8,7.1-2V13.5z M20.3,18.3v2.3c-0.8,0-1.6-0.2-2.3-0.3v-3c0.7,0.2,1.5,0.3,2.4,0.3
			C20.3,17.9,20.3,18.1,20.3,18.3z M16.1,22.6c-1.1,1.3-3.9,2.3-7.1,2.3c-3.2,0-6.1-1-7.1-2.3v-2.7c1.5,1.2,4.1,2,7.1,2
			c3,0,5.6-0.8,7.1-2V22.6z M1.8,23.9c1.5,1.2,4.1,2,7.1,2c3,0,5.6-0.8,7.1-2v2.7c-1.1,1.3-3.9,2.3-7.1,2.3c-3.2,0-6.1-1-7.1-2.3
			V23.9z M18,21.3c0.7,0.1,1.5,0.2,2.3,0.3v3c-0.8,0-1.6-0.2-2.3-0.3V21.3z M22.1,25.2c1.5,1.2,4.1,2,7.1,2c3,0,5.6-0.8,7.1-2v2.7
			c-1.1,1.3-3.9,2.3-7.1,2.3c-3.2,0-6.1-1-7.1-2.3V25.2z M1.8,27.8c1.5,1.2,4.1,2,7.1,2c3,0,5.6-0.8,7.1-2v2.7
			c-1.1,1.3-3.9,2.3-7.1,2.3c-3.2,0-6.1-1-7.1-2.3V27.8z M18,25.2c0.7,0.1,1.5,0.2,2.3,0.3v3c-0.8,0-1.6-0.2-2.3-0.3V25.2z
			 M22.1,29.2c1.5,1.2,4.1,2,7.1,2c3,0,5.6-0.8,7.1-2v2.7c-1.1,1.3-3.9,2.3-7.1,2.3c-3.2,0-6.1-1-7.1-2.3V29.2z M36.4,21.3V24
			c-1.1,1.3-3.9,2.3-7.1,2.3c-3.2,0-6.1-1-7.1-2.3v-2.4c0.1,0,0.2,0,0.4,0c0,0,0.1,0.1,0.1,0.1c0.1,0,0.1,0.1,0.2,0.1
			c0.2,0.1,0.4,0.2,0.7,0.3c0,0,0.1,0,0.1,0c0.2,0.1,0.4,0.2,0.7,0.3c0.1,0,0.2,0.1,0.3,0.1c0.2,0.1,0.4,0.1,0.5,0.2
			c0.1,0,0.2,0.1,0.3,0.1c0.2,0,0.4,0.1,0.5,0.1c0.1,0,0.2,0,0.4,0.1c0.2,0,0.4,0.1,0.6,0.1c0.1,0,0.2,0,0.4,0c0.2,0,0.4,0,0.7,0.1
			c0.1,0,0.2,0,0.3,0c0.3,0,0.7,0,1,0c0.3,0,0.7,0,1,0c0.1,0,0.2,0,0.3,0c0.2,0,0.4,0,0.7-0.1c0.1,0,0.2,0,0.4,0
			c0.2,0,0.4-0.1,0.6-0.1c0.1,0,0.2,0,0.4-0.1c0.2,0,0.4-0.1,0.6-0.1c0.1,0,0.2-0.1,0.3-0.1c0.2-0.1,0.4-0.1,0.5-0.2
			c0.1,0,0.2-0.1,0.3-0.1c0.2-0.1,0.4-0.2,0.7-0.3c0,0,0.1,0,0.1,0c0.2-0.1,0.5-0.2,0.7-0.3c0.1,0,0.1-0.1,0.2-0.1
			C36,21.5,36.2,21.5,36.4,21.3C36.3,21.3,36.4,21.3,36.4,21.3z M36.4,18.3c0,1.4-3.1,3-7.1,3c-4.1,0-7.1-1.6-7.1-3
			c0-1.4,3.1-3,7.1-3C33.3,15.3,36.4,16.9,36.4,18.3z M21.2,1.8c4.1,0,7.1,1.6,7.1,3s-3.1,3-7.1,3S14,6.3,14,4.8S17.1,1.8,21.2,1.8z
			 M14,7.9C14.1,7.9,14.1,7.9,14,7.9c0.2,0.1,0.4,0.2,0.5,0.3c0.1,0,0.1,0.1,0.2,0.1c0.2,0.1,0.4,0.2,0.7,0.3c0,0,0.1,0,0.1,0
			c0.2,0.1,0.4,0.2,0.7,0.3c0.1,0,0.2,0.1,0.3,0.1c0.2,0.1,0.4,0.1,0.5,0.2c0.1,0,0.2,0.1,0.3,0.1c0.2,0,0.4,0.1,0.5,0.1
			c0.1,0,0.2,0,0.4,0.1c0.2,0,0.4,0.1,0.6,0.1c0.1,0,0.2,0,0.4,0c0.2,0,0.4,0,0.7,0.1c0.1,0,0.2,0,0.3,0c0.3,0,0.7,0,1,0
			c0.3,0,0.7,0,1,0c0.1,0,0.2,0,0.3,0c0.2,0,0.4,0,0.7-0.1c0.1,0,0.2,0,0.4,0c0.2,0,0.4-0.1,0.6-0.1c0.1,0,0.2,0,0.4-0.1
			c0.2,0,0.4-0.1,0.6-0.1c0.1,0,0.2-0.1,0.3-0.1c0.2-0.1,0.4-0.1,0.5-0.2c0.1,0,0.2-0.1,0.3-0.1c0.2-0.1,0.4-0.2,0.7-0.3
			c0,0,0.1,0,0.1,0c0.2-0.1,0.5-0.2,0.7-0.3c0.1,0,0.1-0.1,0.2-0.1C28,8.1,28.1,8,28.3,7.9c0,0,0.1,0,0.1,0v2.7
			c-1.1,1.3-3.9,2.3-7.1,2.3c-1.2,0-2.3-0.1-3.3-0.4C17.7,11,16.2,9.7,14,8.9V7.9z M9,10c4.1,0,7.1,1.6,7.1,3s-3.1,3-7.1,3
			c-4.1,0-7.1-1.6-7.1-3S4.9,10,9,10z M9,36.2c-4.1,0-7.1-1.6-7.1-3v-1.5c1.5,1.2,4.1,2,7.1,2c3,0,5.6-0.8,7.1-2v1.5
			C16.1,34.6,13.1,36.2,9,36.2z M18,31.8v-2.7c0.7,0.1,1.5,0.2,2.3,0.3v2.7C19.4,32.1,18.7,32,18,31.8z M29.3,37.6
			c-4.1,0-7.1-1.6-7.1-3v-1.5c1.5,1.2,4.1,2,7.1,2c3,0,5.6-0.8,7.1-2v1.5C36.4,36,33.3,37.6,29.3,37.6z"/>
	</g>
	<g>
		<path class="st0" d="M29.2,15.7v0.7c-1.1,0.1-1.9,0.8-1.9,1.8c0,1,0.7,1.7,1.9,1.8v0.8h0.6V20c0.6,0,1-0.2,1.5-0.5l-0.5-0.3
			c-0.3,0.3-0.6,0.4-1,0.4v-2.7c0.4,0,0.7,0.1,1,0.4l0.5-0.3c-0.5-0.4-0.9-0.5-1.5-0.5v-0.7H29.2z M29.2,19.5
			c-0.3,0-0.6-0.2-0.8-0.4c-0.2-0.2-0.3-0.5-0.3-1c0-0.4,0.1-0.7,0.3-1c0.2-0.2,0.5-0.3,0.8-0.4V19.5z"/>
	</g>
</g>
</svg>
