<?xml version="1.0" encoding="utf-8"?>
<!-- Generator: Adobe Illustrator 21.1.0, SVG Export Plug-In . SVG Version: 6.00 Build 0)  -->
<svg version="1.1" id="Layer_1" xmlns="http://www.w3.org/2000/svg" xmlns:xlink="http://www.w3.org/1999/xlink" x="0px" y="0px"
	 viewBox="0 0 19.5 19.5" style="enable-background:new 0 0 19.5 19.5;" xml:space="preserve">
<style type="text/css">
	.st0{fill:#FFFFFF;}
</style>
<g>
	<path class="st0" d="M6.3,4.9c1.3,0,2.3-1,2.3-2.3c0-1.3-1-2.3-2.3-2.3C5,0.3,4,1.3,4,2.6C4,3.9,5,4.9,6.3,4.9z M6.3,0.9
		C7.2,0.9,8,1.7,8,2.6c0,0.9-0.8,1.7-1.7,1.7S4.6,3.6,4.6,2.6C4.6,1.7,5.4,0.9,6.3,0.9z"/>
	<path class="st0" d="M2.8,10.4h7c0.2,0,0.3-0.1,0.3-0.3V7.8c0,0,0,0,0-0.1C10,6.5,9,5.5,7.7,5.5H4.9c-1.3,0-2.4,1.1-2.4,2.3
		c0,0,0,0.1,0,0.1V10C2.5,10.2,2.6,10.4,2.8,10.4z M3.1,7.9c0-1,0.8-1.7,1.8-1.7h2.8c1,0,1.8,0.8,1.8,1.7c0,0,0,0.1,0,0.1l0,1.8H3.1
		L3.1,7.9L2.8,7.9L3.1,7.9z"/>
	<path class="st0" d="M19.4,3.3c0.3-1.5-0.6-2.9-2.1-3.2C17.2,0,16.9,0,16.7,0c-1.3,0-2.4,0.9-2.7,2.1l-1,4.2
		c-0.2,0.7,0,1.5,0.3,2.1c0.4,0.6,1,1.1,1.7,1.2c0.2,0,0.4,0.1,0.6,0.1l0,0c0.1,0,0.2,0,0.4,0c-1.5,2.6-3.7,4.9-6.4,6.4
		c0-0.3,0-0.7,0-1c-0.3-1.2-1.4-2.1-2.7-2.1c-0.2,0-0.4,0-0.7,0.1l-4.2,1c-1.5,0.4-2.4,1.9-2,3.4c0.3,1.2,1.4,2.1,2.7,2.1
		c0,0,0,0,0,0c0.2,0,0.4,0,0.6-0.1c6.6-0.7,12.2-5.1,14.7-11c0.1-0.2,0.3-0.5,0.3-0.8l0-0.1C18.9,6.2,19.3,4.8,19.4,3.3
		C19.4,3.3,19.4,3.3,19.4,3.3z M1.3,17.1c-0.2-0.8,0.3-1.7,1.1-1.9l4.2-1c0.1,0,0.2,0,0.4,0c0.7,0,1.3,0.5,1.5,1.2
		c0.1,0.4,0,0.8-0.2,1.2c-0.2,0.4-0.6,0.6-1,0.7l-4.2,1c-0.1,0-0.2,0-0.4,0c0,0,0,0,0,0C2.1,18.3,1.4,17.8,1.3,17.1z M15.4,8.5
		c-0.4-0.1-0.7-0.3-1-0.7c-0.2-0.4-0.3-0.8-0.2-1.2l1-4.2c0.2-0.7,0.8-1.2,1.5-1.2c0.1,0,0.2,0,0.4,0c0.8,0.2,1.3,1,1.1,1.9l-1,4.1
		c-0.1,0.2-0.1,0.4-0.2,0.6C16.7,8.3,16,8.6,15.4,8.5z"/>
</g>
</svg>
