<?xml version="1.0" encoding="utf-8"?>
<!-- Generator: Adobe Illustrator 21.1.0, SVG Export Plug-In . SVG Version: 6.00 Build 0)  -->
<svg version="1.1" id="Layer_1" xmlns="http://www.w3.org/2000/svg" xmlns:xlink="http://www.w3.org/1999/xlink" x="0px" y="0px"
	 viewBox="0 0 19.9 17.6" style="enable-background:new 0 0 19.9 17.6;" xml:space="preserve">
<style type="text/css">
	.st0{fill:#FFFFFF;}
</style>
<g>
	<path class="st0" d="M11.7,4.8H2.6C2.4,4.8,2.3,5,2.3,5.2c0,0.2,0.1,0.3,0.3,0.3h9.1c0.2,0,0.3-0.1,0.3-0.3C12,5,11.9,4.8,11.7,4.8
		z"/>
	<path class="st0" d="M11.7,6.7H2.6C2.4,6.7,2.3,6.8,2.3,7c0,0.2,0.1,0.3,0.3,0.3h9.1C11.9,7.3,12,7.2,12,7
		C12,6.8,11.9,6.7,11.7,6.7z"/>
	<path class="st0" d="M11.7,8.5H2.6c-0.2,0-0.3,0.1-0.3,0.3c0,0.2,0.1,0.3,0.3,0.3h9.1C11.9,9.1,12,9,12,8.8
		C12,8.6,11.9,8.5,11.7,8.5z"/>
	<path class="st0" d="M11.7,10.3H2.6c-0.2,0-0.3,0.1-0.3,0.3c0,0.2,0.1,0.3,0.3,0.3h9.1c0.2,0,0.3-0.1,0.3-0.3
		C12,10.4,11.9,10.3,11.7,10.3z"/>
	<path class="st0" d="M11.7,12.1H2.6c-0.2,0-0.3,0.1-0.3,0.3c0,0.2,0.1,0.3,0.3,0.3h9.1c0.2,0,0.3-0.1,0.3-0.3
		C12,12.2,11.9,12.1,11.7,12.1z"/>
	<path class="st0" d="M11.7,13.9h-3c-0.2,0-0.3,0.1-0.3,0.3c0,0.2,0.1,0.3,0.3,0.3h3c0.2,0,0.3-0.1,0.3-0.3
		C12,14,11.9,13.9,11.7,13.9z"/>
	<path class="st0" d="M11.7,3H2.6C2.4,3,2.3,3.2,2.3,3.4c0,0.2,0.1,0.3,0.3,0.3h9.1c0.2,0,0.3-0.1,0.3-0.3C12,3.2,11.9,3,11.7,3z"/>
	<path class="st0" d="M19.4,7.4c0.2-0.2,0.2-0.4,0.2-0.6l0,0c0.1-0.1,0.1-0.3,0-0.5c-0.1-0.1-0.3-0.1-0.5,0l0,0
		c-0.2-0.1-0.4,0-0.6,0.2l-4.2,4.2V0.3C14.3,0.1,14.2,0,14,0H0.3C0.1,0,0,0.1,0,0.3v16.9c0,0.2,0.1,0.3,0.3,0.3H14
		c0.2,0,0.3-0.1,0.3-0.3v-4.7L19.4,7.4z M0.6,16.9V0.6h13v10.7l-0.8,0.8c-0.2,0.2-0.2,0.4-0.2,0.6l-0.5,0.5c-0.1,0.1-0.1,0.3,0,0.5
		c0.1,0.1,0.1,0.1,0.2,0.1c0.1,0,0.2,0,0.2-0.1l0.5-0.5c0,0,0.1,0,0.2,0c0.1,0,0.3-0.1,0.4-0.1v3.8H0.6z"/>
	<path class="st0" d="M19.8,7.9c-0.1-0.1-0.3-0.1-0.5,0l-2.7,2.7c-0.1,0.1-0.1,0.3,0,0.4c0.1,0.1,0.1,0.1,0.2,0.1
		c0.1,0,0.2,0,0.2-0.1l2.7-2.7C19.9,8.3,19.9,8.1,19.8,7.9z"/>
</g>
</svg>
