<?xml version="1.0" encoding="utf-8"?>
<!-- Generator: Adobe Illustrator 21.1.0, SVG Export Plug-In . SVG Version: 6.00 Build 0)  -->
<svg version="1.1" id="Layer_1" xmlns="http://www.w3.org/2000/svg" xmlns:xlink="http://www.w3.org/1999/xlink" x="0px" y="0px"
	 viewBox="0 0 22.9 21.8" style="enable-background:new 0 0 22.9 21.8;" xml:space="preserve">
<style type="text/css">
	.st0{fill:#FFFFFF;}
</style>
<g>
	<path class="st0" d="M15.5,12.9c0,1.5,1.2,2.8,2.8,2.8c1.5,0,2.8-1.2,2.8-2.8c0-1.5-1.2-2.8-2.8-2.8C16.8,10.2,15.5,11.4,15.5,12.9
		z M18.3,10.8c1.2,0,2.2,1,2.2,2.2c0,1.2-1,2.2-2.2,2.2c-1.2,0-2.2-1-2.2-2.2C16.1,11.7,17.1,10.8,18.3,10.8z"/>
	<path class="st0" d="M22.9,18.7C22.8,17.2,21.5,16,20,16h-3.4c-1.5,0-2.8,1.2-2.9,2.8c0,0,0,0,0,0.1v2.7c0,0.2,0.1,0.3,0.3,0.3h8.6
		c0.2,0,0.3-0.1,0.3-0.3L22.9,18.7C22.9,18.7,22.9,18.7,22.9,18.7z M18.9,17.4l-0.6,2.4l-0.6-2.4l0.6-0.7L18.9,17.4z M14.3,18.8
		C14.3,18.8,14.3,18.8,14.3,18.8c0-1.3,1.1-2.3,2.3-2.3h1.1l-0.5,0.6c-0.1,0.1-0.1,0.2-0.1,0.3l0.9,3.7c0,0,0,0.1,0,0.1h-3.7V18.8z
		 M22.3,21.2h-3.7c0,0,0,0,0-0.1l0.9-3.7c0-0.1,0-0.2-0.1-0.3l-0.5-0.6h1c1.2,0,2.3,1,2.3,2.2c0,0,0,0,0,0V21.2z"/>
	<path class="st0" d="M4.6,15.7c1.5,0,2.8-1.2,2.8-2.8c0-1.5-1.2-2.8-2.8-2.8c-1.5,0-2.8,1.2-2.8,2.8C1.8,14.5,3.1,15.7,4.6,15.7z
		 M4.6,10.8c1.2,0,2.2,1,2.2,2.2c0,1.2-1,2.2-2.2,2.2c-1.2,0-2.2-1-2.2-2.2C2.4,11.7,3.4,10.8,4.6,10.8z"/>
	<path class="st0" d="M6.3,16H2.9c-1.5,0-2.8,1.2-2.9,2.8c0,0,0,0,0,0.1v2.7c0,0.2,0.1,0.3,0.3,0.3h8.6c0.2,0,0.3-0.1,0.3-0.3v-2.7
		c0,0,0,0,0-0.1C9.1,17.2,7.8,16,6.3,16z M5.2,17.4l-0.6,2.4L4,17.4l0.6-0.7L5.2,17.4z M0.6,18.8C0.6,18.8,0.6,18.8,0.6,18.8
		c0-1.3,1.1-2.3,2.3-2.3h1.1l-0.5,0.6c-0.1,0.1-0.1,0.2-0.1,0.3l0.9,3.7c0,0,0,0.1,0,0.1H0.6V18.8z M8.6,21.2H4.8c0,0,0,0,0-0.1
		l0.9-3.7c0-0.1,0-0.2-0.1-0.3l-0.5-0.6h1c1.2,0,2.3,1,2.3,2.2c0,0,0,0,0,0V21.2z"/>
	<path class="st0" d="M15.1,10.9c0.1,0,0.2,0,0.2-0.1c0.2-0.1,0.3-0.3,0.3-0.5V8.4c1.6-0.9,2.5-2.2,2.5-3.6c0-2.6-3.1-4.8-7-4.8
		c-3.8,0-7,2.1-7,4.8c0,1.4,0.9,2.7,2.5,3.6v1.9c0,0.2,0.1,0.4,0.3,0.5c0.2,0.1,0.5,0.1,0.6-0.1l1.6-1.4c1.2,0.2,2.5,0.2,3.8,0
		l1.6,1.4C14.8,10.9,14.9,10.9,15.1,10.9z M14.5,8.2V9l-0.8-0.7c-0.1-0.2-0.4-0.3-0.6-0.2c-1.3,0.3-2.6,0.3-3.9,0
		C9,8.1,8.8,8.2,8.6,8.4L7.8,9V8.3c0.1-0.3,0-0.6-0.3-0.7C6.2,6.9,5.4,5.8,5.4,4.8c0-1.9,2.6-3.6,5.8-3.6c3.1,0,5.8,1.6,5.8,3.6
		c0,1.1-0.8,2.1-2.2,2.8C14.5,7.7,14.4,8,14.5,8.2z"/>
	<path class="st0" d="M8,3.4h6.8c0.2,0,0.3-0.1,0.3-0.3c0-0.2-0.1-0.3-0.3-0.3H8C7.9,2.8,7.7,3,7.7,3.1C7.7,3.3,7.9,3.4,8,3.4z"/>
	<path class="st0" d="M15.1,4.7c0-0.2-0.1-0.3-0.3-0.3H8c-0.2,0-0.3,0.1-0.3,0.3C7.7,4.8,7.9,5,8,5h6.8C15,5,15.1,4.8,15.1,4.7z"/>
	<path class="st0" d="M12.2,5.9H8C7.9,5.9,7.7,6,7.7,6.2c0,0.2,0.1,0.3,0.3,0.3h4.2c0.2,0,0.3-0.1,0.3-0.3C12.5,6,12.4,5.9,12.2,5.9
		z"/>
</g>
</svg>
